<svg width="200" height="200" viewBox="0 0 200 200" xmlns="http://www.w3.org/2000/svg"><title>Artboard 1 Copy 19</title><defs><linearGradient x1="49.997%" y1="-19.516%" x2="49.997%" y2="129.625%" id="a"><stop stop-color="#0994DC" offset="0%"/><stop stop-color="#66CEF5" offset="35.001%"/><stop stop-color="#66CEF5" offset="35.001%"/><stop stop-color="#127BCA" offset="84.616%"/><stop stop-color="#127BCA" offset="84.616%"/><stop stop-color="#127BCA" offset="100%"/></linearGradient><linearGradient x1="50.001%" y1="-19.516%" x2="50.001%" y2="129.624%" id="b"><stop stop-color="#0E76BC" offset="0%"/><stop stop-color="#36AEE8" offset="36%"/><stop stop-color="#36AEE8" offset="36%"/><stop stop-color="#00ADEF" offset="84.616%"/><stop stop-color="#00ADEF" offset="84.616%"/><stop stop-color="#00ADEF" offset="100%"/></linearGradient><linearGradient x1="49.999%" y1="110.922%" x2="49.999%" y2="-6.214%" id="c"><stop stop-color="#1C63B7" offset="0%"/><stop stop-color="#33BDF2" offset="50%"/><stop stop-color="#33BDF2" stop-opacity=".42" offset="100%"/></linearGradient><linearGradient x1="50.001%" y1="-19.515%" x2="50.001%" y2="129.627%" id="d"><stop stop-color="#166AB8" offset="0%"/><stop stop-color="#36AEE8" offset="39.999%"/><stop stop-color="#36AEE8" offset="39.999%"/><stop stop-color="#0798DD" offset="84.616%"/><stop stop-color="#0798DD" offset="84.616%"/><stop stop-color="#0798DD" offset="100%"/></linearGradient><linearGradient x1="49.999%" y1="-19.521%" x2="49.999%" y2="129.627%" id="e"><stop stop-color="#124379" offset="0%"/><stop stop-color="#1487CB" offset="39%"/><stop stop-color="#1487CB" offset="39%"/><stop stop-color="#165197" offset="78.023%"/><stop stop-color="#165197" offset="78.023%"/><stop stop-color="#165197" offset="100%"/></linearGradient><linearGradient x1="0%" y1="50.001%" y2="50.001%" id="f"><stop stop-color="#33BDF2" stop-opacity=".698" offset="0%"/><stop stop-color="#1DACD8" offset="100%"/></linearGradient><linearGradient x1="50.01%" y1="94.686%" x2="50.01%" y2="-3.025%" id="g"><stop stop-color="#136AB4" offset="0%"/><stop stop-color="#59CAF5" stop-opacity=".549" offset="60%"/><stop stop-color="#59CAF5" stop-opacity=".235" offset="100%"/></linearGradient><linearGradient x1="-.001%" y1="50%" x2="99.999%" y2="50%" id="h"><stop stop-color="#05A1E6" stop-opacity=".247" offset="0%"/><stop stop-color="#05A1E6" offset="100%"/></linearGradient><linearGradient x1="49.998%" y1="124.314%" x2="49.998%" y2="-9.421%" id="i"><stop stop-color="#318ED5" offset="0%"/><stop stop-color="#38A7E4" offset="100%"/></linearGradient><linearGradient x1="49.999%" y1="91.2%" x2="49.999%" y2="-76.785%" id="j"><stop stop-color="#05A1E6" offset="0%"/><stop stop-color="#05A1E6" stop-opacity=".549" offset="100%"/></linearGradient><linearGradient x1="50%" y1="100.01%" x2="50%" y2=".01%" id="k"><stop stop-color="#1959A6" offset="0%"/><stop stop-color="#05A1E6" offset="50%"/><stop stop-color="#05A1E6" offset="50%"/><stop stop-color="#7EC5EA" offset="91.759%"/><stop stop-color="#7EC5EA" offset="100%"/></linearGradient><linearGradient x1="59.804%" y1="94.568%" x2="38.471%" y2="5.755%" id="l"><stop stop-color="#165096" offset="0%"/><stop stop-color="#0D82CA" offset="100%"/></linearGradient><linearGradient x1="49.995%" y1="76.998%" x2="49.995%" y2="-3.299%" id="m"><stop stop-color="#05A1E6" offset="0%"/><stop stop-color="#0495D6" offset="87.363%"/><stop stop-color="#0495D6" offset="100%"/></linearGradient><linearGradient x1="65.263%" y1="-4.161%" x2="34.263%" y2="105.844%" id="n"><stop stop-color="#38A7E4" stop-opacity=".329" offset="0%"/><stop stop-color="#0E88D3" offset="96.153%"/><stop stop-color="#0E88D3" offset="96.153%"/><stop stop-color="#0E88D3" offset="100%"/></linearGradient><linearGradient x1="50.017%" y1="-.296%" x2="50.017%" y2="101.882%" id="o"><stop stop-color="#168CD4" offset="0%"/><stop stop-color="#1C87CC" offset="50%"/><stop stop-color="#154B8D" offset="100%"/></linearGradient><linearGradient x1="16.674%" y1="205.565%" x2="87.813%" y2="-19.836%" id="p"><stop stop-color="#97D6EE" offset="0%"/><stop stop-color="#55C1EA" offset="70.329%"/><stop stop-color="#55C1EA" offset="100%"/></linearGradient><linearGradient x1="6.89%" y1="6.3%" x2="75.783%" y2="116.771%" id="q"><stop stop-color="#7ACCEC" offset="0%"/><stop stop-color="#3FB7ED" offset="100%"/></linearGradient><linearGradient x1="49.997%" y1="6.363%" x2="49.997%" y2="127.961%" id="r"><stop stop-color="#1DA7E7" offset="0%"/><stop stop-color="#37ABE7" stop-opacity="0" offset="100%"/></linearGradient></defs><g fill="none" fill-rule="evenodd"><path d="M60.974 14.401c6.321 19.328 8.716 53.807 27.2 53.807 1.408 0 2.83-.138 4.257-.41-16.803-3.917-18.795-38.02-29.048-55.682a85.066 85.066 0 0 0-2.41 2.285" fill="url(#a)" transform="translate(12 65)"/><path d="M63.383 12.116C73.636 29.777 75.628 63.881 92.43 67.798a26.755 26.755 0 0 0 3.969-1.071c-15.083-7.39-19.252-40.506-30.896-56.45a72.558 72.558 0 0 0-2.121 1.84" fill="url(#b)" transform="translate(12 65)"/><path d="M90.156 66.613a22.8 22.8 0 0 0-4.26.41c-3.74.704-7.539 2.315-11.37 4.752a28.217 28.217 0 0 1 2.98 3.502c3.895-3.232 7.765-5.62 11.62-7.056a25.915 25.915 0 0 1 4.336-1.204 13.357 13.357 0 0 0-3.306-.404" fill="#14559A"/><path d="M108.173 59.916a67.718 67.718 0 0 0 4.638-4.064c-6.423-19.238-8.722-54.21-27.336-54.21-1.332 0-2.674.124-4.014.372 16.955 4.217 19.127 41.1 26.712 57.902" fill="url(#c)" transform="translate(12 65)"/><path d="M119.848 129.002a27.545 27.545 0 0 1-2.098-2.267c-3.131 2.217-6.251 3.897-9.351 4.992 1.103.539 2.26.94 3.486 1.187.95.194 1.935.294 2.97.294 3.479 0 6.229-.412 8.57-1.535-1.289-.696-2.471-1.599-3.577-2.67" fill="#1969BC"/><path d="M77.125 3.224c15.187 7.942 16.507 43.907 28.625 58.51a51.443 51.443 0 0 0 2.42-1.818c-7.584-16.801-9.754-53.688-26.706-57.902-1.447.27-2.892.671-4.339 1.21" fill="url(#d)" transform="translate(12 65)"/><path d="M65.504 10.278C77.148 26.22 81.317 59.338 96.4 66.727c3.1-1.095 6.22-2.775 9.35-4.992C93.632 47.13 92.312 11.166 77.125 3.224 73.27 4.657 69.4 7.045 65.504 10.278" fill="url(#e)" transform="translate(12 65)"/><path d="M53.524 13.936c-1.825 4.126-3.69 9.55-5.943 16.628 4.482-6.314 8.95-11.755 13.393-16.163-.613-1.881-1.27-3.616-1.978-5.161a66.737 66.737 0 0 0-5.472 4.696" fill="url(#f)" transform="translate(12 65)"/><path d="M72.615 73.05c-.536.384-1.075.776-1.617 1.19.708 1.546 1.363 3.28 1.975 5.161a93.714 93.714 0 0 1 2.409-2.284c-.86-1.478-1.775-2.843-2.767-4.067" fill="#2B74B1"/><path d="M74.527 71.775a52.89 52.89 0 0 0-1.913 1.274c.993 1.224 1.907 2.59 2.77 4.07a64.57 64.57 0 0 1 2.121-1.842 28.215 28.215 0 0 0-2.978-3.502" fill="#125A9E"/><path d="M166.114.141c-8.589 33.12-26.529 59.721-41.57 66.428h-.028c-.273.124-.544.237-.812.347-.037.022-.07.025-.099.038-.079.032-.152.057-.231.088-.037.022-.07.03-.104.043-.127.045-.251.084-.375.133-.054.023-.105.037-.156.054a1.886 1.886 0 0 1-.186.061c-.056.023-.115.039-.18.064-.054.022-.11.031-.161.054-.11.032-.212.058-.322.097-.045 0-.087.024-.135.036-.068.022-.144.039-.217.059a.628.628 0 0 1-.147.04 3.437 3.437 0 0 1-.237.061l-.288.064c.68.25 1.388.378 2.153.378 14.261 0 28.641-25.555 52.434-68.052h-9.342l.003.007z" fill="url(#g)" transform="translate(12 65)"/><path d="M44.484 2.957c.008 0 .02-.022.025-.022.011 0 .029 0 .034-.022h.018c.08-.027.153-.059.231-.088.02 0 .031 0 .046-.023.02 0 .04-.022.06-.025.084-.027.168-.059.247-.088h.014c.189-.056.364-.126.547-.192.026 0 .05-.022.082-.022.076-.025.155-.052.234-.07.037-.022.073-.022.107-.034.082-.025.16-.052.237-.07.034 0 .065-.022.09-.024.262-.073.522-.14.784-.204.037 0 .068-.022.107-.024a1.5 1.5 0 0 1 .229-.045c.034-.023.073-.023.113-.034.076-.023.15-.025.231-.044h.054c.158-.031.319-.058.477-.088h.095c.076-.022.144-.024.22-.038.042 0 .085-.022.125-.022.07 0 .14-.023.211-.032.037 0 .073 0 .116-.023.166-.022.338-.03.513-.045a15.847 15.847 0 0 0-1.517-.079C32.152 1.6 10.024 31.396.055 69.984h1.92a558.706 558.706 0 0 0 8.678-16.121c6.98-27.332 21.2-45.972 33.832-50.91" fill="url(#h)" transform="translate(12 65)"/><path d="M65.524 78.936a66.708 66.708 0 0 1 5.472-4.696 25.835 25.835 0 0 0-1.303-2.519c-1.47 1.783-2.812 4.135-4.169 7.215" fill="#0D82CA"/><path d="M66.844 68.183c1.049.88 1.988 2.09 2.849 3.54.27-.333.544-.64.829-.928-1.193-1.114-2.482-2.028-3.882-2.716.057.031.113.056.172.081 0 0 .022.023.032.023" fill="#0D82CA"/><path d="M10.652 53.866C25.297 25.648 32.236 7.79 44.484 2.956c-12.629 4.941-26.85 23.58-33.832 50.91" fill="url(#i)" transform="translate(12 65)"/><path d="M70.52 70.794a14 14 0 0 0-.828.928 26.2 26.2 0 0 1 1.306 2.519c.541-.415 1.08-.807 1.616-1.19a21.988 21.988 0 0 0-2.093-2.257" fill="#127BCA"/><path d="M17.3 69.86c-.09.023-.18.023-.265.032h-.05c-.077 0-.156.022-.226.022h-.037c-.183.023-.364.023-.539.037h-.056c14.823-.415 21.598-7.835 24.96-18.598 2.556-8.159 4.655-15.032 6.494-20.8-6.209 8.738-12.445 19.153-18.716 30.821-3.024 5.624-7.621 7.973-11.565 8.475" fill="url(#j)" transform="translate(12 65)"/><path d="M17.3 69.855c3.944-.503 8.542-2.85 11.565-8.476 6.27-11.665 12.51-22.083 18.713-30.82 2.257-7.082 4.118-12.503 5.946-16.629C41.161 25.696 28.75 45.261 17.3 69.849" fill="url(#k)" transform="translate(12 65)"/><path d="M22.651 118.867a558.143 558.143 0 0 1-8.676 16.12h5.588a136.532 136.532 0 0 1 3.088-16.118" fill="#05A1E6"/><path d="M49.217 1.738c-.045 0-.079.022-.118.022-.068.023-.139.023-.21.03-.041 0-.08 0-.123.022-.077.022-.147.025-.22.039-.034 0-.068 0-.096.022l-.477.083h-.054a1.874 1.874 0 0 1-.23.046c-.04.022-.08.022-.117.031-.076.022-.152.032-.225.045-.04.023-.07.023-.108.025-.262.063-.521.13-.784.203-.028 0-.056.022-.09.027a10.04 10.04 0 0 0-.237.07c-.034.022-.073.022-.107.031a6.53 6.53 0 0 0-.234.07c-.03 0-.057.022-.085.022-.18.068-.358.136-.544.192-.08.025-.164.056-.248.086-.034.022-.065.027-.105.043a2.626 2.626 0 0 0-.231.086c-.028.022-.056.024-.076.036C32.25 7.803 25.31 25.66 10.666 53.879a135.94 135.94 0 0 0-3.089 16.118h.784c2.21 0 2.832-.022 5.374-.022h2.462c.175-.023.356-.023.54-.037h.033c.076 0 .152-.022.226-.022h.053c.082 0 .175-.022.265-.032 11.45-24.587 23.861-44.152 36.224-55.919 1.36-3.08 2.7-5.432 4.167-7.211-.858-1.45-1.797-2.663-2.847-3.543 0 0-.028 0-.03-.022-.06-.025-.116-.054-.175-.084l-.172-.088a1.868 1.868 0 0 1-.17-.08c-.073-.023-.132-.055-.197-.084-.053-.023-.101-.046-.155-.068a6.602 6.602 0 0 1-.324-.135c-.048-.023-.093-.034-.139-.052a4.607 4.607 0 0 1-.242-.097c-.04-.023-.085-.027-.13-.043-.116-.039-.229-.08-.336-.115h-.028c-.13-.043-.256-.075-.389-.111-.03-.022-.056-.022-.087-.027-.116-.032-.218-.063-.328-.092-.028 0-.053-.023-.076-.023-.265-.07-.538-.126-.815-.178-.028 0-.056-.022-.084-.022a4.817 4.817 0 0 0-.353-.057c-.028-.022-.045-.022-.07-.022a9.396 9.396 0 0 0-.418-.054h-.073c-.113-.023-.217-.025-.322-.037-.178.023-.347.032-.513.048" fill="url(#l)" transform="translate(12 65)"/><path d="M132.564 18.476c-2.818 9.025-5.1 16.471-7.085 22.597 7.731-10.638 15.347-24.021 22.6-39.465-8.46 2.657-12.973 8.737-15.515 16.868" fill="url(#m)" transform="translate(12 65)"/><path d="M125.724 66.005c-.395.2-.79.392-1.18.564 15.041-6.707 32.981-33.308 41.57-66.428h-1.74c-19.734 35.246-26.08 58.841-38.65 65.864" fill="url(#n)" transform="translate(12 65)"/><path d="M127.903 128.044c3.272-3.994 5.937-10.782 9.576-21.97-4.197 5.764-8.422 10.72-12.65 14.76 0 .023 0 .023-.023.037.923 2.764 1.935 5.204 3.089 7.172" fill="#079AE1"/><path d="M127.903 128.044c-1.114 1.36-2.293 2.394-3.605 3.161a13.64 13.64 0 0 1-.874.469 12.675 12.675 0 0 0 4.589 1.446c.248.025.493.048.75.066h.045c.116 0 .237 0 .362.022h1.223c.045 0 .092 0 .138-.022.088 0 .18 0 .27-.023h.134c.092 0 .194-.022.293-.032h.022c.03 0 .061-.022.09-.022.104-.022.213-.032.314-.047h.092c.115-.023.234-.037.353-.059h.056c.237-.045.469-.09.703-.149-1.941-.71-3.566-2.386-4.965-4.772" fill="#1969BC"/><path d="M100.175 133.208c1.407 0 2.829-.138 4.256-.412 1.32-.24 2.643-.606 3.969-1.069 1.103.539 2.26.94 3.484 1.188.95.194 1.937.293 2.973.293h-14.682z" fill="#1E5CB3"/><path d="M114.857 133.208c3.475 0 6.228-.412 8.567-1.534a12.678 12.678 0 0 0 4.589 1.447c.248.024.494.047.75.065h.045c.116 0 .237 0 .362.022h.421-14.744.01z" fill="#1E5CB3"/><path d="M124.815 120.872v-.023a67.665 67.665 0 0 1-4.637 4.064c-.807.64-1.61 1.247-2.423 1.82.68.812 1.37 1.573 2.098 2.267 1.106 1.072 2.288 1.974 3.577 2.67.293-.144.587-.301.872-.467 1.314-.767 2.493-1.802 3.607-3.162-1.153-1.968-2.166-4.408-3.088-7.172" fill="#175FAB"/><path d="M158.862.141h-8.76c-.474.023-.933.039-1.388.068-.214.46-.434.92-.646 1.382-7.252 15.444-14.868 28.827-22.6 39.465-3.635 11.188-6.304 17.977-9.576 21.97 1.4 2.387 3.027 4.065 4.962 4.775.056-.022.102-.022.152-.034h.032c.034 0 .07-.022.107-.022.079-.022.163-.036.242-.06.051-.023.093-.025.144-.042.074-.022.15-.038.217-.056.046-.022.09-.03.136-.039.113-.036.214-.063.321-.097a.94.94 0 0 1 .161-.054c.062-.022.124-.038.18-.065.066-.023.13-.034.187-.059.05-.022.104-.036.152-.056.127-.046.251-.084.378-.134.034 0 .068-.03.105-.038.076-.032.155-.056.231-.09.028-.023.062-.025.099-.037.265-.11.538-.223.812-.346h.029c.389-.172.784-.364 1.176-.564 12.572-7.023 18.919-30.618 38.653-65.864h-5.512l.006-.003z" fill="url(#o)" transform="translate(12 65)"/><path d="M61.731 66.69c.031 0 .06 0 .09.023.076 0 .153 0 .229.024h.076c.138.023.276.034.417.054.026 0 .048 0 .07.023.116.022.235.04.353.058.026 0 .06.023.088.023.27.054.547.11.812.18.026 0 .051.023.074.023.113.026.214.06.327.092.034 0 .059.022.09.027.133.034.257.068.387.111.005 0 .013 0 .028.022.11.034.223.077.339.115.045.023.087.032.13.043.078.034.166.068.242.1.045 0 .09.03.138.047.104.048.214.09.322.136.056.022.104.047.158.067.062.032.126.061.194.084l.172.08c.06.033.116.057.172.089 1.4.688 2.688 1.605 3.882 2.716.44-.463.9-.877 1.376-1.25-2.61-1.85-5.565-2.904-8.976-2.904-.394 0-.79.022-1.19.051" fill="#7DCBEC"/><path d="M70.521 70.794c.73.68 1.43 1.439 2.093 2.256a48.9 48.9 0 0 1 1.912-1.274 20.177 20.177 0 0 0-2.631-2.231c-.477.37-.934.787-1.374 1.25" fill="#5EC5ED"/><path d="M2.677 5.195c.4.034.795.048 1.19.048 3.41 0 6.367-1.055 8.976-2.902 2.753 2.172 6.081 2.93 10.705 2.93H1.159c.517 0 1.021-.03 1.518-.076" transform="matrix(1 0 0 -1 59.053 71.885)" fill="url(#p)"/><path d="M12.265 5.271c-4.624 0-7.952-.758-10.705-2.93A20.336 20.336 0 0 0 4.189.11c3.833 2.437 7.63 4.05 11.373 4.755 1.427.268 2.852.406 4.257.406h-7.554z" transform="matrix(1 0 0 -1 70.336 71.885)" fill="url(#q)"/><path d="M125.479 41.079c1.988-6.132 4.265-13.575 7.088-22.603 2.544-8.133 7.05-14.214 15.509-16.868.223-.454.434-.922.651-1.382-13.79.826-20.236 7.84-23.48 18.228-5.672 18.135-9.108 29.89-12.417 37.38 4.226-4.038 8.451-8.996 12.649-14.755" fill="url(#r)" transform="translate(12 65)"/></g></svg>