<svg width="200" height="200" viewBox="0 0 200 200" xmlns="http://www.w3.org/2000/svg"><title>dotnetcore</title><g fill="none" fill-rule="evenodd"><path fill="#75308B" d="M15 15h169.673v169.673H15z"/><g transform="translate(36 78)" fill="#FFF"><path d="M37.143 23.178a369.752 369.752 0 0 1 7.55 11.308h.186c-.27-4.038-.404-8.16-.404-12.365V.001h5.064V41.57h-5.033l-16.31-23.177a306.742 306.742 0 0 1-7.55-11.309h-.187c.27 3.79.404 8.213.404 13.266v21.22H15.8V0h5.033l16.31 23.178zm28.023 13.825H86.48v4.567H60.102V0H85.33v4.568H65.166v13.421h17.927v4.567H65.166v14.447zm44.925 4.567h-5.064V4.568H91.139V0h32.84v4.567H110.09V41.57z"/><ellipse cx="3.818" cy="37.752" rx="3.818" ry="3.818"/></g></g></svg>